<svg
              xmlns="http://www.w3.org/2000/svg"
              width="240"
              height="127"
              viewBox="0 0 961 509"
              fill="none"
            >
              <path
                d="M354.787 32.5627C231.182 -39.0881 179.416 49.0744 168.983 102.112C32.6598 90.1035 1.55987 219.195 3.05028 285.242C3.05028 431.746 113.672 479.046 168.983 484.383C185.278 500.395 329.45 498.393 399.5 495.391C446.398 514.605 515.752 503.397 544.566 495.391C572.785 510.602 727.556 494.39 801.414 484.383C938.134 445.556 962.378 318.099 957.41 259.224C941.512 119.524 823.273 81.9311 766.141 80.5968C730.371 -20.675 635.647 0.0396492 592.756 23.056C489.421 -17.3727 391.054 12.5485 354.787 32.5627Z"
                fill="white"
                stroke="black"
                stroke-width="6"
              />
            </svg>